<svg width="21" height="21" viewBox="0 0 21 21" fill="none" xmlns="http://www.w3.org/2000/svg">
<path d="M10.5 0.375C4.99 0.375 0.5 4.865 0.5 10.375C0.5 15.885 4.99 20.375 10.5 20.375C16.01 20.375 20.5 15.885 20.5 10.375C20.5 4.865 16.01 0.375 10.5 0.375ZM9.75 6.375C9.75 5.965 10.09 5.625 10.5 5.625C10.91 5.625 11.25 5.965 11.25 6.375V11.375C11.25 11.785 10.91 12.125 10.5 12.125C10.09 12.125 9.75 11.785 9.75 11.375V6.375ZM11.42 14.755C11.37 14.885 11.3 14.985 11.21 15.085C11.11 15.175 11 15.245 10.88 15.295C10.76 15.345 10.63 15.375 10.5 15.375C10.37 15.375 10.24 15.345 10.12 15.295C10 15.245 9.89 15.175 9.79 15.085C9.7 14.985 9.63 14.885 9.58 14.755C9.53 14.635 9.5 14.505 9.5 14.375C9.5 14.245 9.53 14.115 9.58 13.995C9.63 13.875 9.7 13.765 9.79 13.665C9.89 13.575 10 13.505 10.12 13.455C10.36 13.355 10.64 13.355 10.88 13.455C11 13.505 11.11 13.575 11.21 13.665C11.3 13.765 11.37 13.875 11.42 13.995C11.47 14.115 11.5 14.245 11.5 14.375C11.5 14.505 11.47 14.635 11.42 14.755Z" fill="#292D32"/>
</svg>
