<svg width="19" height="19" viewBox="0 0 19 19" fill="none" xmlns="http://www.w3.org/2000/svg">
<path d="M17.6272 6.13406L11.6913 1.38531C10.5313 0.460938 8.71878 0.451875 7.56784 1.37625L1.6319 6.13406C0.780027 6.81375 0.263465 8.17312 0.444715 9.2425L1.58659 16.0756C1.8494 17.6072 3.27221 18.8125 4.8219 18.8125H14.4282C15.9597 18.8125 17.4097 17.58 17.6725 16.0666L18.8144 9.23344C18.9775 8.17313 18.461 6.81375 17.6272 6.13406ZM10.3047 15.1875C10.3047 15.5591 9.99659 15.8672 9.62503 15.8672C9.25346 15.8672 8.94534 15.5591 8.94534 15.1875V12.4688C8.94534 12.0972 9.25346 11.7891 9.62503 11.7891C9.99659 11.7891 10.3047 12.0972 10.3047 12.4688V15.1875Z" fill="#292D32"/>
</svg>
