<svg width="19" height="19" viewBox="0 0 19 19" fill="none" xmlns="http://www.w3.org/2000/svg">
<path d="M16.9656 6.76875C15.3253 6.76875 14.6547 5.56875 15.4703 4.09688C15.9416 3.24375 15.6606 2.15625 14.8359 1.66875L13.2681 0.740626C12.5522 0.300001 11.6278 0.562502 11.2019 1.30313L11.1022 1.48125C10.2866 2.95313 8.94531 2.95313 8.12063 1.48125L8.02094 1.30313C7.61312 0.562502 6.68875 0.300001 5.97281 0.740626L4.405 1.66875C3.58031 2.15625 3.29938 3.25313 3.77063 4.10625C4.59531 5.56875 3.92469 6.76875 2.28438 6.76875C1.34188 6.76875 0.5625 7.56563 0.5625 8.55V10.2C0.5625 11.175 1.33281 11.9813 2.28438 11.9813C3.92469 11.9813 4.59531 13.1813 3.77063 14.6531C3.29938 15.5063 3.58031 16.5938 4.405 17.0813L5.97281 18.0094C6.68875 18.45 7.61313 18.1875 8.03906 17.4469L8.13875 17.2688C8.95438 15.7969 10.2956 15.7969 11.1203 17.2688L11.22 17.4469C11.6459 18.1875 12.5703 18.45 13.2863 18.0094L14.8541 17.0813C15.6788 16.5938 15.9597 15.4969 15.4884 14.6531C14.6638 13.1813 15.3344 11.9813 16.9747 11.9813C17.9172 11.9813 18.6966 11.1844 18.6966 10.2V8.55C18.6875 7.575 17.9172 6.76875 16.9656 6.76875ZM9.625 12.4219C8.00281 12.4219 6.67969 11.0531 6.67969 9.375C6.67969 7.69688 8.00281 6.32813 9.625 6.32813C11.2472 6.32813 12.5703 7.69688 12.5703 9.375C12.5703 11.0531 11.2472 12.4219 9.625 12.4219Z" fill="#292D32"/>
</svg>
