<svg width="5" height="11" viewBox="0 0 5 11" fill="none" xmlns="http://www.w3.org/2000/svg">
<path d="M1.68672 6.93374C1.68672 7.09101 1.64008 7.24475 1.55271 7.37552C1.46533 7.50629 1.34114 7.60821 1.19584 7.66839C1.05054 7.72858 0.890658 7.74432 0.736408 7.71364C0.582158 7.68296 0.440471 7.60723 0.329263 7.49602C0.218055 7.38481 0.142321 7.24312 0.111639 7.08887C0.0809566 6.93462 0.0967038 6.77474 0.156889 6.62944C0.217074 6.48414 0.318995 6.35995 0.449762 6.27257C0.580528 6.1852 0.734268 6.13856 0.89154 6.13856C1.10244 6.13856 1.30469 6.22234 1.45382 6.37146C1.60294 6.52059 1.68672 6.72285 1.68672 6.93374ZM0.89154 3.35543C0.734268 3.35543 0.580528 3.40206 0.449762 3.48944C0.318995 3.57682 0.217074 3.70101 0.156889 3.84631C0.0967038 3.99161 0.0809566 4.15149 0.111639 4.30574C0.142321 4.45999 0.218055 4.60168 0.329263 4.71289C0.440471 4.82409 0.582158 4.89983 0.736408 4.93051C0.890658 4.96119 1.05054 4.94545 1.19584 4.88526C1.34114 4.82507 1.46533 4.72315 1.55271 4.59239C1.64008 4.46162 1.68672 4.30788 1.68672 4.15061C1.68672 3.93971 1.60294 3.73746 1.45382 3.58833C1.30469 3.43921 1.10244 3.35543 0.89154 3.35543ZM0.89154 0.572296C0.734268 0.572296 0.580528 0.618933 0.449762 0.706308C0.318995 0.793684 0.217074 0.917874 0.156889 1.06317C0.0967038 1.20847 0.0809566 1.36836 0.111639 1.52261C0.142321 1.67686 0.218055 1.81855 0.329263 1.92975C0.440471 2.04096 0.582158 2.1167 0.736408 2.14738C0.890658 2.17806 1.05054 2.16231 1.19584 2.10213C1.34114 2.04194 1.46533 1.94002 1.55271 1.80926C1.64008 1.67849 1.68672 1.52475 1.68672 1.36748C1.68672 1.15658 1.60294 0.954324 1.45382 0.805199C1.30469 0.656074 1.10244 0.572296 0.89154 0.572296ZM4.07226 8.5241C3.91499 8.5241 3.76125 8.57074 3.63048 8.65811C3.49972 8.74549 3.3978 8.86968 3.33761 9.01498C3.27743 9.16028 3.26168 9.32016 3.29236 9.47441C3.32304 9.62866 3.39878 9.77035 3.50999 9.88156C3.62119 9.99277 3.76288 10.0685 3.91713 10.0992C4.07138 10.1299 4.23126 10.1141 4.37656 10.0539C4.52187 9.99375 4.64606 9.89183 4.73343 9.76106C4.82081 9.6303 4.86744 9.47655 4.86744 9.31928C4.86744 9.10839 4.78367 8.90613 4.63454 8.757C4.48541 8.60788 4.28316 8.5241 4.07226 8.5241ZM4.07226 5.74097C3.91499 5.74097 3.76125 5.78761 3.63048 5.87498C3.49972 5.96236 3.3978 6.08655 3.33761 6.23185C3.27743 6.37715 3.26168 6.53703 3.29236 6.69128C3.32304 6.84553 3.39878 6.98722 3.50999 7.09843C3.62119 7.20964 3.76288 7.28537 3.91713 7.31605C4.07138 7.34673 4.23126 7.33099 4.37656 7.2708C4.52187 7.21062 4.64606 7.1087 4.73343 6.97793C4.82081 6.84716 4.86744 6.69342 4.86744 6.53615C4.86744 6.32526 4.78367 6.123 4.63454 5.97387C4.48541 5.82475 4.28316 5.74097 4.07226 5.74097ZM4.07226 2.95784C3.91499 2.95784 3.76125 3.00447 3.63048 3.09185C3.49972 3.17923 3.3978 3.30342 3.33761 3.44872C3.27743 3.59402 3.26168 3.7539 3.29236 3.90815C3.32304 4.0624 3.39878 4.20409 3.50999 4.3153C3.62119 4.4265 3.76288 4.50224 3.91713 4.53292C4.07138 4.5636 4.23126 4.54786 4.37656 4.48767C4.52187 4.42748 4.64606 4.32556 4.73343 4.1948C4.82081 4.06403 4.86744 3.91029 4.86744 3.75302C4.86744 3.54212 4.78367 3.33987 4.63454 3.19074C4.48541 3.04162 4.28316 2.95784 4.07226 2.95784Z" fill="#ABABAF" fill-opacity="0.38"/>
</svg>
